# File created by Blade
# Date/Time:  Thu Jan 22 16:00:53 2015
#---------------------------------------------------------
:version 1.10
:name HOM
:units
  mass 1.0
  length 1.000000
  angle deg
:documentation
     Acclaim Skeleton File
:root
   axis xyz
   order TX TY TZ RX RY RZ
   position 0.000000 0.000000 0.000000
   orientation 0 0 0
:bonedata
   begin
      id 1
      name RightUpLeg_dum
      direction -1.000000 0.000000 0.000000
      length 3.766986
      axis 0.0 0.0 0.0 xyz
   end
   begin
      id 2
      name LeftUpLeg_dum
      direction 1.000000 0.000000 0.000000
      length 3.766986
      axis 0.0 0.0 0.0 xyz
   end
   begin
      id 3
      name Spine_dum
      direction 0.000000 1.000000 0.000000
      length 7.779697
      axis 0.0 0.0 0.0 xyz
   end
   begin
      id 4
      name RightUpLeg
      direction 0.000000 -1.000000 0.000000
      length 18.017682
      axis 0.0 0.0 0.0 xyz
      dof rx ry rz
   end
   begin
      id 5
      name RightLeg
      direction 0.000000 -1.000000 0.000000
      length 16.881075
      axis 0.0 0.0 0.0 xyz
      dof rx ry rz
   end
   begin
      id 6
      name RightFoot
      direction 0.000000 -0.258819 0.965926
      length 5.770812
      axis 15.0 0.0 0.0 xyz
      dof rx ry rz
   end
   begin
      id 7
      name RightToeBase
      direction 0.000000 0.000000 1.000000
      length 2.952750
      axis 0.0 0.0 0.0 xyz
      dof rx ry rz
   end
   begin
      id 8
      name LeftUpLeg
      direction 0.000000 -1.000000 0.000000
      length 18.017682
      axis 0.0 0.0 0.0 xyz
      dof rx ry rz
   end
   begin
      id 9
      name LeftLeg
      direction 0.000000 -1.000000 0.000000
      length 16.881075
      axis 0.0 0.0 0.0 xyz
      dof rx ry rz
   end
   begin
      id 10
      name LeftFoot
      direction 0.000000 -0.258819 0.965926
      length 5.770812
      axis 15.0 0.0 0.0 xyz
      dof rx ry rz
   end
   begin
      id 11
      name LeftToeBase
      direction 0.000000 0.000000 1.000000
      length 2.952750
      axis 0.0 0.0 0.0 xyz
      dof rx ry rz
   end
   begin
      id 12
      name Spine
      direction 0.000000 1.000000 0.000000
      length 0.000000
      axis 0.0 0.0 0.0 xyz
      dof rx ry rz
   end
   begin
      id 13
      name Spine_dum1
      direction 0.000000 1.000000 0.000000
      length 10.941760
      axis 0.0 0.0 0.0 xyz
   end
   begin
      id 14
      name Spine_dum2
      direction 0.000000 1.000000 0.000000
      length 10.941760
      axis 0.0 0.0 0.0 xyz
   end
   begin
      id 15
      name Spine_dum3
      direction 0.000000 1.000000 0.000000
      length 16.646042
      axis 0.0 0.0 0.0 xyz
   end
   begin
      id 16
      name RightShoulder
      direction -1.000000 0.000000 0.000000
      length 7.708937
      axis 0.0 0.0 90.0 xyz
      dof rx ry rz
   end
   begin
      id 17
      name RightArm
      direction -1.000000 0.000000 0.000000
      length 11.521345
      axis 0.0 0.0 90.0 xyz
      dof rx ry rz
   end
   begin
      id 18
      name RightForeArm
      direction -1.000000 0.000000 0.000000
      length 10.175898
      axis 0.0 0.0 90.0 xyz
      dof ry rz rx
   end
   begin
      id 19
      name RightHand
      direction -1.000000 0.000000 0.000000
      length 0.000000
      axis 0.0 0.0 90.0 xyz
      dof rx ry rz
   end
   begin
      id 20
      name RightHand_dum1
      direction -1.000000 0.000000 0.000000
      length 3.937000
      axis 0.0 0.0 90.0 xyz
   end
   begin
      id 21
      name RightHand_dum2
      direction 0.000000 0.000000 0.000000
      length 0.000000
      axis 0.0 0.0 90.0 xyz
   end
   begin
      id 22
      name RightHandThumb1
      direction 0.000000 0.000000 1.000000
      length 3.937000
      axis 0.0 0.0 90.0 xyz
      dof rx rz ry
   end
   begin
      id 23
      name LeftShoulder
      direction 1.000000 0.000000 0.000000
      length 7.708937
      axis 0.0 0.0 -90.0 xyz
      dof rx ry rz
   end
   begin
      id 24
      name LeftArm
      direction 1.000000 0.000000 0.000000
      length 11.521345
      axis 0.0 0.0 -90.0 xyz
      dof rx ry rz
   end
   begin
      id 25
      name LeftForeArm
      direction 1.000000 0.000000 0.000000
      length 10.175898
      axis 0.0 0.0 -90.0 xyz
      dof ry rz rx
   end
   begin
      id 26
      name LeftHand
      direction 1.000000 0.000000 0.000000
      length 0.000000
      axis 0.0 0.0 -90.0 xyz
      dof rx ry rz
   end
   begin
      id 27
      name LeftHand_dum1
      direction 1.000000 0.000000 0.000000
      length 3.937000
      axis 0.0 0.0 -90.0 xyz
   end
   begin
      id 28
      name LeftHand_dum2
      direction 0.000000 0.000000 0.000000
      length 0.000000
      axis 0.0 0.0 -90.0 xyz
   end
   begin
      id 29
      name LeftHandThumb1
      direction 0.000000 0.000000 1.000000
      length 3.937000
      axis 0.0 0.0 -90.0 xyz
      dof rx rz ry
   end
   begin
      id 30
      name Head
      direction 0.000000 1.000000 0.000000
      length 4.527550
      axis 0.0 0.0 0.0 xyz
      dof rx ry rz
   end
:hierarchy
   begin
      root RightUpLeg_dum LeftUpLeg_dum Spine_dum
      RightUpLeg_dum RightUpLeg
      LeftUpLeg_dum LeftUpLeg
      Spine_dum Spine
      RightUpLeg RightLeg
      RightLeg RightFoot
      RightFoot RightToeBase
      LeftUpLeg LeftLeg
      LeftLeg LeftFoot
      LeftFoot LeftToeBase
      Spine Spine_dum1 Spine_dum2 Spine_dum3
      Spine_dum1 RightShoulder
      Spine_dum2 LeftShoulder
      Spine_dum3 Head
      RightShoulder RightArm
      RightArm RightForeArm
      RightForeArm RightHand
      RightHand RightHand_dum1 RightHand_dum2
      RightHand_dum2 RightHandThumb1
      LeftShoulder LeftArm
      LeftArm LeftForeArm
      LeftForeArm LeftHand
      LeftHand LeftHand_dum1 LeftHand_dum2
      LeftHand_dum2 LeftHandThumb1
   end

# File created by Blade
# Date/Time:  Thu Jan 22 16:00:44 2015
# Frame Rate: 120.000 fps
#------------------------------------------------------
:FULLY-SPECIFIED
:DEGREES
1
root 2.751578 37.118770 3.941435 -3.587174 -2.392553 2.296297
RightUpLeg 11.454285 -5.289887 -5.152103
RightLeg -5.028406 -0.000000 0.000000
RightFoot -11.145820 -11.491776 17.007143
RightToeBase 14.236798 -0.000000 -0.000000
LeftUpLeg 9.627089 6.156675 1.741040
LeftLeg -2.156898 -0.000000 0.000000
LeftFoot -7.882222 9.342424 -17.602866
LeftToeBase 9.034597 -0.000000 -0.000000
Spine 9.788101 -4.954632 -3.333003
RightShoulder -6.026957 -14.448713 -26.285475
RightArm 8.172660 25.054287 32.010788
RightForeArm 5.550684 -0.000000 19.440430
RightHand 1.784989 -0.000000 6.160691
RightHandThumb1 -24.326973 -0.000000 -32.862282
LeftShoulder -28.052054 36.149230 14.434101
LeftArm 40.025493 -44.384038 -48.353769
LeftForeArm 34.806175 0.000000 7.427952
LeftHand -18.820465 -0.000000 -6.202928
LeftHandThumb1 -26.253704 0.000000 33.147579
Head 8.371253 15.801518 1.796346
2
root 2.752459 37.118261 3.941400 -3.593737 -2.387975 2.302677
RightUpLeg 11.459196 -5.289120 -5.156310
RightLeg -5.033605 -0.000000 0.000000
RightFoot -11.169179 -11.514754 17.028565
RightToeBase 14.285315 -0.000000 -0.000000
LeftUpLeg 9.630292 6.163489 1.735407
LeftLeg -2.149650 -0.000000 0.000000
LeftFoot -7.878353 9.315107 -17.644921
LeftToeBase 9.054832 -0.000000 -0.000000
Spine 9.838504 -4.963207 -3.357480
RightShoulder -6.024655 -14.553057 -26.226104
RightArm 8.099017 24.667208 31.955609
RightForeArm 5.665238 -0.000000 19.421306
RightHand 1.932829 0.000000 6.190704
RightHandThumb1 -24.326973 -0.000000 -32.862282
LeftShoulder -28.081365 36.220772 14.397343
LeftArm 39.646868 -43.974928 -47.913065
LeftForeArm 34.867758 -0.000000 7.449485
LeftHand -18.706973 -0.000000 -6.127912
LeftHandThumb1 -26.253704 0.000000 33.147579
Head 8.367740 15.831764 1.814990
3
root 2.752780 37.118347 3.940122 -3.590179 -2.380563 2.300929
RightUpLeg 11.456165 -5.282409 -5.154788
RightLeg -5.033761 -0.000000 0.000000
RightFoot -11.173357 -11.517709 17.066150
RightToeBase 14.283968 -0.000000 -0.000000
LeftUpLeg 9.621535 6.160981 1.737035
LeftLeg -2.144333 -0.000000 0.000000
LeftFoot -7.881788 9.315184 -17.603232
LeftToeBase 9.081967 -0.000000 -0.000000
Spine 9.880545 -4.968145 -3.365985
RightShoulder -6.025913 -14.705529 -26.161327
RightArm 8.032493 24.326287 31.926105
RightForeArm 5.636610 -0.000000 19.438343
RightHand 1.935564 -0.000000 6.158886
RightHandThumb1 -24.326973 -0.000000 -32.862282
LeftShoulder -28.105694 36.299280 14.342099
LeftArm 39.300484 -43.590290 -47.494290
LeftForeArm 34.894202 0.000000 7.446957
LeftHand -18.623687 -0.000000 -6.114053
LeftHandThumb1 -26.253704 0.000000 33.147579
Head 8.356371 15.841559 1.815212
4
root 2.752578 37.118728 3.938685 -3.583439 -2.370084 2.298161
RightUpLeg 11.448187 -5.295479 -5.149887
RightLeg -5.031182 -0.000000 0.000000
RightFoot -11.168689 -11.520298 17.045139
RightToeBase 14.280796 -0.000000 -0.000000
LeftUpLeg 9.611168 6.170887 1.742486
LeftLeg -2.143855 -0.000000 0.000000
LeftFoot -7.879670 9.298565 -17.634535
LeftToeBase 8.997920 -0.000000 -0.000000
Spine 9.921552 -4.987283 -3.380560
RightShoulder -6.034905 -14.888104 -26.069893
RightArm 8.005443 23.951446 31.882633
RightForeArm 5.730537 -0.000000 19.421813
RightHand 2.070291 -0.000000 6.090526
RightHandThumb1 -24.326973 -0.000000 -32.862282
LeftShoulder -28.146442 36.384665 14.273521
LeftArm 38.908338 -43.154832 -47.015489
LeftForeArm 34.858879 -0.000000 7.438965
LeftHand -18.586077 0.000000 -6.139873
LeftHandThumb1 -26.253704 0.000000 33.147579
Head 8.348547 15.871187 1.833835
5
root 2.752920 37.119086 3.937420 -3.576206 -2.357936 2.295177
RightUpLeg 11.438371 -5.309076 -5.153685
RightLeg -5.017232 -0.000000 0.000000
RightFoot -11.161460 -11.485796 17.044301
RightToeBase 14.260706 -0.000000 -0.000000
LeftUpLeg 9.600531 6.161152 1.742316
LeftLeg -2.144252 -0.000000 0.000000
LeftFoot -7.866611 9.306324 -17.587273
LeftToeBase 8.988096 -0.000000 -0.000000
Spine 9.966162 -4.975890 -3.393838
RightShoulder -6.075194 -15.064757 -25.963671
RightArm 7.962027 23.558660 31.828768
RightForeArm 5.752938 -0.000000 19.400267
RightHand 2.114496 -0.000000 6.171435
RightHandThumb1 -24.326973 -0.000000 -32.862282
LeftShoulder -28.255273 36.537329 14.152345
LeftArm 38.683017 -42.701452 -46.605238
LeftForeArm 34.789338 -0.000000 7.386217
LeftHand -18.454123 0.000000 -5.958392
LeftHandThumb1 -26.253704 0.000000 33.147579
Head 8.335329 15.875482 1.863416
